<?xml version="1.0" encoding="UTF-8" standalone="no"?>
<svg width="48px" height="48px" viewBox="0 0 48 48" version="1.1" xmlns="http://www.w3.org/2000/svg" xmlns:xlink="http://www.w3.org/1999/xlink">
    <!-- Generator: Sketch 39.1 (31720) - http://www.bohemiancoding.com/sketch -->
    <title>tusimple-logo</title>
    <desc>Created with Sketch.</desc>
    <defs></defs>
    <g id="logo" stroke="none" stroke-width="1" fill="none" fill-rule="evenodd">
        <g id="tusimple-logo" fill="#FFFFFF">
            <path d="M40.58,37.36 C39.646662,37.6000012 38.4333408,37.8466654 36.94,38.1 C35.4466592,38.3533346 33.8066756,38.48 32.02,38.48 C30.3399916,38.48 28.933339,38.2400024 27.8,37.76 C26.666661,37.2799976 25.7600034,36.6133376 25.08,35.76 C24.3999966,34.9066624 23.9133348,33.8866726 23.62,32.7 C23.3266652,31.5133274 23.18,30.2133404 23.18,28.8 L23.18,17.08 L28.02,17.08 L28.02,28.04 C28.02,30.2800112 28.3466634,31.8799952 29,32.84 C29.6533366,33.8000048 30.7933252,34.28 32.42,34.28 C33.0066696,34.28 33.6266634,34.2533336 34.28,34.2 C34.9333366,34.1466664 35.4199984,34.0800004 35.74,34 L35.74,17.08 L40.58,17.08 L40.58,37.36 Z M16.058,10.412 L11.346,11.476 L11.346,17.214 L8.23,17.214 L8.23,20.71 L11.346,20.71 L11.346,33.022 C11.346,36.86 13.208,38.57 17.16,38.57 C18.414,38.57 19.554,38.532 20.884,38.342 L21.074,34.922 C20.2,35.112 19.44,35.15 18.642,35.15 C16.894,35.15 16.058,34.238 16.058,32.148 L16.058,20.71 L20.732,20.71 L20.732,17.214 L16.058,17.214 L16.058,10.412 Z" id="text" fill-opacity="0"></path>
            <path d="M1,5.00172845 C1,2.79163485 2.78913646,1 5.00172845,1 L42.9982716,1 C45.2083651,1 47,2.78913646 47,5.00172845 L47,42.9982716 C47,45.2083651 45.2108635,47 42.9982716,47 L5.00172845,47 C2.79163485,47 1,45.2108635 1,42.9982716 L1,5.00172845 Z M16.058,9.412 L11.346,10.476 L11.346,16.214 L8.23,16.214 L8.23,19.71 L11.346,19.71 L11.346,32.022 C11.346,35.86 13.208,37.57 17.16,37.57 C18.414,37.57 19.554,37.532 20.884,37.342 L21.074,33.922 C20.2,34.112 19.44,34.15 18.642,34.15 C16.894,34.15 16.058,33.238 16.058,31.148 L16.058,19.71 L20.732,19.71 L20.732,16.214 L16.058,16.214 L16.058,9.412 Z M40.58,36.36 C39.646662,36.6000012 38.4333408,36.8466654 36.94,37.1 C35.4466592,37.3533346 33.8066756,37.48 32.02,37.48 C30.3399916,37.48 28.933339,37.2400024 27.8,36.76 C26.666661,36.2799976 25.7600034,35.6133376 25.08,34.76 C24.3999966,33.9066624 23.9133348,32.8866726 23.62,31.7 C23.3266652,30.5133274 23.18,29.2133404 23.18,27.8 L23.18,16.08 L28.02,16.08 L28.02,27.04 C28.02,29.2800112 28.3466634,30.8799952 29,31.84 C29.6533366,32.8000048 30.7933252,33.28 32.42,33.28 C33.0066696,33.28 33.6266634,33.2533336 34.28,33.2 C34.9333366,33.1466664 35.4199984,33.0800004 35.74,33 L35.74,16.08 L40.58,16.08 L40.58,36.36 Z" id="back"></path>
            <path d="M0,4.00989318 C0,1.79529033 1.79405245,0 4.00989318,0 L43.9901068,0 C46.2047097,0 48,1.79405245 48,4.00989318 L48,43.9901068 C48,46.2047097 46.2059475,48 43.9901068,48 L4.00989318,48 C1.79529033,48 0,46.2059475 0,43.9901068 L0,4.00989318 Z M2,6.00180999 C2,3.79167136 3.79309123,2 6.00180999,2 L41.99819,2 C44.2083286,2 46,3.79309123 46,6.00180999 L46,41.99819 C46,44.2083286 44.2069088,46 41.99819,46 L6.00180999,46 C3.79167136,46 2,44.2069088 2,41.99819 L2,6.00180999 Z" id="border"></path>
        </g>
    </g>
</svg>